# xmcd
#
# Track frame offsets: 
#        150
#        17456
#        34482
#        52019
#        69785
#        84573
#        103282
#        118523
#        137804
#        153292
#        170028
#        185624
#        201631
#        220373
#        237898
#
# Disc length: 3454 seconds
#
# Revision: 0
# Processed by: cddbd v1.5.1PL2 Copyright (c) Steve Scherf et al.
# Submitted via: ExactAudioCopy v0.95b3
#
DISCID=dc0d7c0f
DTITLE=Rimes, Leann - Whatever We Wanna
DYEAR=2006
DGENRE=Country
TTITLE0=Satisfied
TTITLE1=And It Feels Like
TTITLE2=For The First Time
TTITLE3=Save Myself
TTITLE4=A Little More Time
TTITLE5=Rumour Bout A Revolution
TTITLE6=Destructive
TTITLE7=Strong
TTITLE8=Whatever We Wanna
TTITLE9=Everybody's Someone
TTITLE10=Headphones
TTITLE11=Long Night
TTITLE12=This Life
TTITLE13=Break Me Down
TTITLE14=Some People
EXTD=
EXTT0=
EXTT1=
EXTT2=
EXTT3=
EXTT4=
EXTT5=
EXTT6=
EXTT7=
EXTT8=
EXTT9=
EXTT10=
EXTT11=
EXTT12=
EXTT13=
EXTT14=
PLAYORDER=
